<svg enable-background="new 0 0 24 24" height="512" viewBox="0 0 24 24" width="512" xmlns="http://www.w3.org/2000/svg"><path d="m17.639 3.112-7.912 7.929c-.07.07-.117.159-.137.256l-.707 3.543c-.033.164.019.334.137.453.095.095.223.147.354.147.032 0 .065-.003.098-.01l3.535-.709c.098-.02.187-.067.256-.137l7.912-7.93z" fill="#42a5f5"/><path d="m23.268 1.014c-.975-.977-2.561-.977-3.535 0l-1.384 1.387 3.535 3.543 1.384-1.387c.472-.473.732-1.102.732-1.772s-.26-1.299-.732-1.771z" fill="#42a5f5"/><path d="m17.25 24.331h-14.5c-1.517 0-2.75-1.236-2.75-2.754v-14.533c0-1.518 1.233-2.754 2.75-2.754h8.5c.414 0 .75.336.75.75s-.336.75-.75.75h-8.5c-.689 0-1.25.562-1.25 1.254v14.532c0 .692.561 1.254 1.25 1.254h14.5c.689 0 1.25-.562 1.25-1.254v-8.519c0-.414.336-.75.75-.75s.75.336.75.75v8.519c0 1.519-1.233 2.755-2.75 2.755z"/><path d="m8.772 16.291c-.197 0-.388-.078-.53-.219-.177-.177-.254-.432-.205-.678l.707-3.543c.028-.145.1-.278.204-.383l10.357-10.38c1.039-1.041 2.852-1.041 3.891 0 1.071 1.074 1.071 2.821 0 3.895l-10.357 10.379c-.105.105-.238.176-.384.206l-3.535.708c-.049.01-.099.015-.148.015zm3.536-1.459h.01zm-2.137-2.465-.442 2.218 2.209-.443 10.195-10.219c.489-.489.488-1.286 0-1.775-.471-.473-1.295-.473-1.766 0z"/><path d="m21.25 6.62c-.192 0-.385-.073-.531-.22l-2.828-2.834c-.292-.293-.292-.768.002-1.061.292-.293.769-.292 1.061.001l2.828 2.834c.292.293.292.768-.002 1.061-.146.146-.339.219-.53.219z"/></svg>